<svg width="300" height="423" viewBox="0 0 300 423" fill="none" xmlns="http://www.w3.org/2000/svg">
<g clip-path="url(#clip0_536_95)">
<g filter="url(#filter0_d_536_95)">
<path d="M55.289 21H54.6576L54.298 21.5191L14.2145 79.3839L14 79.6936V80.0704L14.0001 345.284V345.681L14.236 346.001L54.3195 400.249L54.6809 400.738H55.289H244.856H245.467L245.828 400.245L285.61 345.997L285.844 345.679V345.284V76.1524V75.756L285.609 75.437L245.826 21.49L245.465 21H244.856H55.289Z" fill="#C53F61"/>
<path d="M55.289 21H54.6576L54.298 21.5191L14.2145 79.3839L14 79.6936V80.0704L14.0001 345.284V345.681L14.236 346.001L54.3195 400.249L54.6809 400.738H55.289H244.856H245.467L245.828 400.245L285.61 345.997L285.844 345.679V345.284V76.1524V75.756L285.609 75.437L245.826 21.49L245.465 21H244.856H55.289Z" stroke="#B5B5B5" stroke-width="2.41103"/>
</g>
<path d="M55.289 42.6914H54.6576L54.298 43.2105L14.2145 101.075L14 101.385V101.762V345.276V345.673L14.2359 345.993L54.3194 400.241L54.6808 400.73H55.2889H244.856H245.467L245.828 400.238L285.61 345.989L285.844 345.671V345.276V97.8439V97.4474L285.609 97.1284L245.826 43.1815L245.465 42.6914H244.856H55.289Z" fill="#121212"/>
<path d="M55.289 42.6914H54.6576L54.298 43.2105L14.2145 101.075L14 101.385V101.762V345.276V345.673L14.2359 345.993L54.3194 400.241L54.6808 400.73H55.2889H244.856H245.467L245.828 400.238L285.61 345.989L285.844 345.671V345.276V97.8439V97.4474L285.609 97.1284L245.826 43.1815L245.465 42.6914H244.856H55.289Z" fill="url(#paint0_linear_536_95)"/>
<path d="M55.289 42.6914H54.6576L54.298 43.2105L14.2145 101.075L14 101.385V101.762V345.276V345.673L14.2359 345.993L54.3194 400.241L54.6808 400.73H55.2889H244.856H245.467L245.828 400.238L285.61 345.989L285.844 345.671V345.276V97.8439V97.4474L285.609 97.1284L245.826 43.1815L245.465 42.6914H244.856H55.289Z" stroke="#B5B5B5" stroke-width="2.41103"/>
<mask id="mask0_536_95" style="mask-type:alpha" maskUnits="userSpaceOnUse" x="12" y="19" width="276" height="383">
<path d="M55.289 21H54.6576L54.298 21.5191L14.2145 79.3839L14 79.6936V80.0704L14.0001 345.284V345.681L14.236 346.001L54.3195 400.249L54.6809 400.738H55.289H244.856H245.467L245.828 400.245L285.61 345.997L285.844 345.679V345.284V76.1524V75.756L285.609 75.437L245.826 21.49L245.465 21H244.856H55.289Z" fill="#121212"/>
<path d="M55.289 21H54.6576L54.298 21.5191L14.2145 79.3839L14 79.6936V80.0704L14.0001 345.284V345.681L14.236 346.001L54.3195 400.249L54.6809 400.738H55.289H244.856H245.467L245.828 400.245L285.61 345.997L285.844 345.679V345.284V76.1524V75.756L285.609 75.437L245.826 21.49L245.465 21H244.856H55.289Z" fill="url(#paint1_linear_536_95)"/>
<path d="M55.289 21H54.6576L54.298 21.5191L14.2145 79.3839L14 79.6936V80.0704L14.0001 345.284V345.681L14.236 346.001L54.3195 400.249L54.6809 400.738H55.289H244.856H245.467L245.828 400.245L285.61 345.997L285.844 345.679V345.284V76.1524V75.756L285.609 75.437L245.826 21.49L245.465 21H244.856H55.289Z" stroke="#B5B5B5" stroke-width="2.41103"/>
</mask>
<g mask="url(#mask0_536_95)">
<path d="M397.986 367.43H-98.2852V405.914H397.986V367.43Z" fill="#C53F61" stroke="#B5B5B5" stroke-width="2.41103"/>
<path d="M285.845 274.159H14.604V366.381H285.845V274.159Z" fill="#454545"/>
<path d="M111.755 348.139H72.2273V339.824L86.4213 325.474C90.6243 321.168 93.3703 318.19 94.6603 316.54C95.9493 314.864 96.8773 313.317 97.4443 311.899C98.0123 310.481 98.2953 309.011 98.2953 307.49C98.2953 305.221 97.6643 303.532 96.4003 302.423C95.1623 301.314 93.4993 300.76 91.4113 300.76C89.2193 300.76 87.0923 301.263 85.0293 302.268C82.9663 303.274 80.8133 304.705 78.5703 306.561L72.0723 298.865C74.8573 296.492 77.1653 294.816 78.9953 293.837C80.8263 292.857 82.8243 292.109 84.9903 291.593C87.1563 291.052 89.5803 290.781 92.2623 290.781C95.7943 290.781 98.9143 291.426 101.622 292.715C104.329 294.004 106.43 295.809 107.926 298.13C109.421 300.45 110.169 303.106 110.169 306.097C110.169 308.701 109.705 311.151 108.777 313.446C107.874 315.715 106.456 318.048 104.522 320.446C102.614 322.844 99.2363 326.261 94.3893 330.696L87.1183 337.542V338.083H111.755V348.139ZM156.698 319.866C156.698 329.742 155.073 337.052 151.824 341.796C148.601 346.541 143.625 348.913 136.895 348.913C130.372 348.913 125.447 346.463 122.12 341.564C118.82 336.665 117.17 329.432 117.17 319.866C117.17 309.888 118.781 302.539 122.004 297.82C125.227 293.076 130.191 290.704 136.895 290.704C143.419 290.704 148.344 293.179 151.67 298.13C155.022 303.08 156.698 310.326 156.698 319.866ZM129.044 319.866C129.044 326.802 129.637 331.779 130.823 334.796C132.035 337.787 134.059 339.282 136.895 339.282C139.68 339.282 141.691 337.761 142.929 334.718C144.166 331.676 144.785 326.725 144.785 319.866C144.785 312.93 144.153 307.954 142.89 304.937C141.652 301.894 139.654 300.373 136.895 300.373C134.085 300.373 132.073 301.894 130.861 304.937C129.65 307.954 129.044 312.93 129.044 319.866ZM171.743 308.534C171.743 311.809 172.027 314.258 172.594 315.883C173.187 317.481 174.128 318.28 175.418 318.28C177.893 318.28 179.131 315.032 179.131 308.534C179.131 302.088 177.893 298.865 175.418 298.865C174.128 298.865 173.187 299.664 172.594 301.263C172.027 302.835 171.743 305.259 171.743 308.534ZM188.877 308.456C188.877 314.387 187.73 318.848 185.435 321.839C183.14 324.804 179.775 326.287 175.34 326.287C171.086 326.287 167.798 324.765 165.477 321.723C163.157 318.654 161.997 314.232 161.997 308.456C161.997 296.673 166.444 290.781 175.34 290.781C179.698 290.781 183.037 292.315 185.358 295.384C187.704 298.426 188.877 302.784 188.877 308.456ZM215.487 291.593L184.12 348.139H174.837L206.205 291.593H215.487ZM211.349 331.121C211.349 334.396 211.632 336.846 212.199 338.47C212.793 340.069 213.734 340.868 215.023 340.868C217.498 340.868 218.736 337.619 218.736 331.121C218.736 324.675 217.498 321.452 215.023 321.452C213.734 321.452 212.793 322.251 212.199 323.85C211.632 325.423 211.349 327.847 211.349 331.121ZM228.483 331.044C228.483 336.949 227.335 341.397 225.04 344.388C222.745 347.353 219.381 348.835 214.946 348.835C210.691 348.835 207.404 347.314 205.083 344.272C202.762 341.203 201.602 336.794 201.602 331.044C201.602 319.26 206.05 313.368 214.946 313.368C219.303 313.368 222.642 314.903 224.963 317.971C227.309 321.014 228.483 325.371 228.483 331.044Z" fill="white"/>
<mask id="mask1_536_95" style="mask-type:luminance" maskUnits="userSpaceOnUse" x="59" y="70" width="181" height="179">
<path d="M239.441 70.4399H59.8188V248.254H239.441V70.4399Z" fill="white"/>
</mask>
<g mask="url(#mask1_536_95)">
<path d="M101.588 102.792H80.0337V113.579H101.588V102.792Z" fill="#CCCCCC"/>
<path d="M97.9866 102.792H83.6196V113.578H97.9866V102.792Z" fill="#B3B3B3"/>
<path d="M219.231 102.792H197.678V113.579H219.231V102.792Z" fill="#CCCCCC"/>
<path d="M215.642 102.792H201.275V113.578H215.642V102.792Z" fill="#B3B3B3"/>
<path d="M149.627 81.2287C163.516 81.2287 174.773 83.5078 174.773 97.4137L180.163 104.158L185.552 97.4137C185.549 77.5516 169.465 70.4399 149.627 70.4399C129.789 70.4399 113.702 77.5516 113.702 97.4173L119.092 104.162L124.482 97.4173C124.482 83.5113 135.742 81.2323 149.627 81.2323V81.2287Z" fill="#B3B3B3"/>
<path d="M108.312 112.721H129.865V102.832C129.865 99.8539 127.453 97.436 124.476 97.436H113.701C110.727 97.436 108.312 99.8504 108.312 102.832V112.721Z" fill="white"/>
<path d="M190.934 112.721H169.381V102.832C169.381 99.8539 171.792 97.436 174.77 97.436H185.545C188.519 97.436 190.934 99.8504 190.934 102.832V112.721Z" fill="white"/>
<path d="M82.2714 243.074H73.2915C65.8495 243.074 59.8188 237.035 59.8188 229.585L70.3845 121.683C70.3845 114.232 76.4155 108.194 83.8575 108.194H216.988L212.075 211.852L82.2714 243.074Z" fill="#C53F61"/>
<path d="M225.957 243.074C233.398 243.074 239.429 237.035 239.429 229.585L228.863 121.683C228.863 114.232 222.832 108.194 215.391 108.194H206.41L181.635 176.533L82.2603 243.074H225.957Z" fill="#C53F61"/>
<path d="M225.957 243.074C233.398 243.074 239.429 237.035 239.429 229.585L228.863 121.683C228.863 114.232 222.832 108.194 215.391 108.194H206.41L188.938 177.603L82.2603 243.074H225.957Z" fill="black" fill-opacity="0.1"/>
<path d="M160.513 185.823L164.426 161.842V128.526H136.502V161.842H103.144V189.732H136.502L160.513 185.823Z" fill="white"/>
<path d="M164.355 222.967V189.366H197.711V161.233H164.355L136.428 189.366V222.967H164.355Z" fill="white"/>
</g>
<path d="M55.289 21H54.6576L54.298 21.5191L14.2145 79.3839L14 79.6936V80.0704L14.0001 345.284V345.681L14.236 346.001L54.3195 400.249L54.6809 400.738H55.289H244.856H245.467L245.828 400.245L285.61 345.997L285.844 345.679V345.284V76.1524V75.756L285.609 75.437L245.826 21.49L245.465 21H244.856H55.289Z" stroke="#B5B5B5" stroke-width="2.41103"/>
</g>
</g>
<defs>
<filter id="filter0_d_536_95" x="-3.20557" y="3.79443" width="306.255" height="414.149" filterUnits="userSpaceOnUse" color-interpolation-filters="sRGB">
<feFlood flood-opacity="0" result="BackgroundImageFix"/>
<feColorMatrix in="SourceAlpha" type="matrix" values="0 0 0 0 0 0 0 0 0 0 0 0 0 0 0 0 0 0 127 0" result="hardAlpha"/>
<feOffset/>
<feGaussianBlur stdDeviation="8"/>
<feComposite in2="hardAlpha" operator="out"/>
<feColorMatrix type="matrix" values="0 0 0 0 0.772549 0 0 0 0 0.247059 0 0 0 0 0.380392 0 0 0 1 0"/>
<feBlend mode="normal" in2="BackgroundImageFix" result="effect1_dropShadow_536_95"/>
<feBlend mode="normal" in="SourceGraphic" in2="effect1_dropShadow_536_95" result="shape"/>
</filter>
<linearGradient id="paint0_linear_536_95" x1="288.857" y1="427.553" x2="14.9043" y2="0.799898" gradientUnits="userSpaceOnUse">
<stop stop-opacity="0.2"/>
<stop offset="0.364583" stop-color="white" stop-opacity="0.1"/>
<stop offset="0.651042" stop-opacity="0.2"/>
<stop offset="1" stop-color="white" stop-opacity="0.2"/>
</linearGradient>
<linearGradient id="paint1_linear_536_95" x1="288.858" y1="427.561" x2="14.9042" y2="0.807551" gradientUnits="userSpaceOnUse">
<stop stop-opacity="0.2"/>
<stop offset="0.364583" stop-color="white" stop-opacity="0.1"/>
<stop offset="0.651042" stop-opacity="0.2"/>
<stop offset="1" stop-color="white" stop-opacity="0.2"/>
</linearGradient>
<clipPath id="clip0_536_95">
<rect width="300" height="423" fill="white"/>
</clipPath>
</defs>
</svg>
