<svg width="300" height="423" viewBox="0 0 300 423" fill="none" xmlns="http://www.w3.org/2000/svg">
<g clip-path="url(#clip0_536_2)">
<g filter="url(#filter0_d_536_2)">
<path d="M56.1519 22H55.5226L55.1642 22.5166L15.2139 80.1091L15 80.4174V80.7924L15.0001 344.758V345.153L15.2353 345.471L55.1855 399.464L55.5457 399.951H56.1519H245.089H245.698L246.058 399.46L285.708 345.467L285.941 345.151V344.758V76.8928V76.4983L285.707 76.1808L246.056 22.4877L245.696 22H245.089H56.1519Z" fill="#FFC422"/>
<path d="M56.1519 22H55.5226L55.1642 22.5166L15.2139 80.1091L15 80.4174V80.7924L15.0001 344.758V345.153L15.2353 345.471L55.1855 399.464L55.5457 399.951H56.1519H245.089H245.698L246.058 399.46L285.708 345.467L285.941 345.151V344.758V76.8928V76.4983L285.707 76.1808L246.056 22.4877L245.696 22H245.089H56.1519Z" stroke="#B5B5B5" stroke-width="2.41103"/>
</g>
<path d="M56.1519 43.5894H55.5226L55.1642 44.106L15.2139 101.699L15 102.007V102.382V344.75V345.145L15.2352 345.464L55.1855 399.456L55.5456 399.943H56.1518H245.089H245.698L246.058 399.453L285.708 345.46L285.941 345.143V344.75V98.4823V98.0877L285.707 97.7702L246.056 44.0771L245.696 43.5894H245.089H56.1519Z" fill="#121212"/>
<path d="M56.1519 43.5894H55.5226L55.1642 44.106L15.2139 101.699L15 102.007V102.382V344.75V345.145L15.2352 345.464L55.1855 399.456L55.5456 399.943H56.1518H245.089H245.698L246.058 399.453L285.708 345.46L285.941 345.143V344.75V98.4823V98.0877L285.707 97.7702L246.056 44.0771L245.696 43.5894H245.089H56.1519Z" fill="url(#paint0_linear_536_2)"/>
<path d="M56.1519 43.5894H55.5226L55.1642 44.106L15.2139 101.699L15 102.007V102.382V344.75V345.145L15.2352 345.464L55.1854 399.456L55.5456 399.943H56.1518H245.089H245.698L246.058 399.453L285.708 345.46L285.941 345.143V344.75V98.4823V98.0877L285.707 97.7702L246.056 44.0771L245.696 43.5894H245.089H56.1519Z" stroke="#B5B5B5" stroke-width="2.41103"/>
<mask id="mask0_536_2" style="mask-type:alpha" maskUnits="userSpaceOnUse" x="13" y="20" width="275" height="382">
<path d="M56.1519 22H55.5226L55.1642 22.5166L15.2139 80.1091L15 80.4174V80.7924L15.0001 344.758V345.153L15.2353 345.471L55.1855 399.464L55.5457 399.951H56.1519H245.089H245.698L246.058 399.46L285.708 345.467L285.941 345.151V344.758V76.8928V76.4983L285.707 76.1808L246.056 22.4877L245.696 22H245.089H56.1519Z" fill="#121212"/>
<path d="M56.1519 22H55.5226L55.1642 22.5166L15.2139 80.1091L15 80.4174V80.7924L15.0001 344.758V345.153L15.2353 345.471L55.1855 399.464L55.5457 399.951H56.1519H245.089H245.698L246.058 399.46L285.708 345.467L285.941 345.151V344.758V76.8928V76.4983L285.707 76.1808L246.056 22.4877L245.696 22H245.089H56.1519Z" fill="url(#paint1_linear_536_2)"/>
<path d="M56.1519 22H55.5226L55.1642 22.5166L15.2139 80.1091L15 80.4174V80.7924L15.0001 344.758V345.153L15.2353 345.471L55.1855 399.464L55.5457 399.951H56.1519H245.089H245.698L246.058 399.46L285.708 345.467L285.941 345.151V344.758V76.8928V76.4983L285.707 76.1808L246.056 22.4877L245.696 22H245.089H56.1519Z" stroke="#B5B5B5" stroke-width="2.41103"/>
</mask>
<g mask="url(#mask0_536_2)">
<path d="M397.706 366.8H-96.916V405.102H397.706V366.8Z" fill="#FFC422" stroke="#B5B5B5" stroke-width="2.41103"/>
<path d="M285.938 273.968H15.5981V365.756H285.938V273.968Z" fill="#454545"/>
<path d="M110.23 303.908C110.23 307.423 109.163 310.413 107.03 312.876C104.897 315.341 101.903 317.035 98.0486 317.958V318.189C102.596 318.754 106.041 320.14 108.379 322.347C110.717 324.528 111.887 327.479 111.887 331.201C111.887 336.615 109.921 340.837 105.989 343.866C102.057 346.868 96.4419 348.37 89.1433 348.37C83.0266 348.37 77.6047 347.355 72.8755 345.328V335.204C75.0602 336.308 77.4632 337.205 80.0845 337.899C82.7057 338.592 85.3011 338.938 87.8715 338.938C91.8034 338.938 94.7077 338.27 96.5835 336.937C98.4592 335.602 99.3971 333.459 99.3971 330.508C99.3971 327.865 98.3177 325.99 96.1589 324.888C94.0001 323.784 90.5565 323.233 85.8283 323.233H81.5496V314.109H85.9051C90.2745 314.109 93.4609 313.544 95.4652 312.415C97.4954 311.26 98.511 309.296 98.511 306.526C98.511 302.265 95.8379 300.135 90.4928 300.135C88.6419 300.135 86.7532 300.443 84.8257 301.059C82.924 301.674 80.8041 302.739 78.4659 304.254L72.9532 296.055C78.0931 292.359 84.2217 290.511 91.3409 290.511C97.1745 290.511 101.774 291.692 105.141 294.052C108.534 296.414 110.23 299.699 110.23 303.908ZM155.332 303.908C155.332 307.423 154.265 310.413 152.132 312.876C149.998 315.341 147.004 317.035 143.15 317.958V318.189C147.699 318.754 151.143 320.14 153.481 322.347C155.82 324.528 156.989 327.479 156.989 331.201C156.989 336.615 155.023 340.837 151.091 343.866C147.159 346.868 141.544 348.37 134.245 348.37C128.129 348.37 122.706 347.355 117.978 345.328V335.204C120.162 336.308 122.565 337.205 125.186 337.899C127.807 338.592 130.404 338.938 132.973 338.938C136.905 338.938 139.809 338.27 141.685 336.937C143.561 335.602 144.499 333.459 144.499 330.508C144.499 327.865 143.42 325.99 141.262 324.888C139.103 323.784 135.659 323.233 130.93 323.233H126.651V314.109H131.007C135.376 314.109 138.563 313.544 140.567 312.415C142.597 311.26 143.613 309.296 143.613 306.526C143.613 302.265 140.94 300.135 135.594 300.135C133.745 300.135 131.855 300.443 129.928 301.059C128.026 301.674 125.906 302.739 123.568 304.254L118.055 296.055C123.195 292.359 129.324 290.511 136.443 290.511C142.276 290.511 146.877 291.692 150.243 294.052C153.635 296.414 155.332 299.699 155.332 303.908ZM172.215 308.181C172.215 311.44 172.498 313.878 173.064 315.495C173.655 317.086 174.592 317.881 175.878 317.881C178.345 317.881 179.579 314.648 179.579 308.181C179.579 301.765 178.345 298.557 175.878 298.557C174.592 298.557 173.655 299.352 173.064 300.944C172.498 302.509 172.215 304.921 172.215 308.181ZM189.292 308.103C189.292 314.006 188.149 318.446 185.862 321.423C183.574 324.374 180.221 325.85 175.8 325.85C171.561 325.85 168.283 324.335 165.971 321.308C163.658 318.253 162.502 313.852 162.502 308.103C162.502 296.375 166.935 290.511 175.8 290.511C180.144 290.511 183.472 292.038 185.785 295.093C188.123 298.12 189.292 302.458 189.292 308.103ZM215.814 291.319L184.551 347.599H175.3L206.563 291.319H215.814ZM211.69 330.661C211.69 333.921 211.972 336.359 212.538 337.976C213.129 339.567 214.067 340.363 215.352 340.363C217.818 340.363 219.052 337.129 219.052 330.661C219.052 324.246 217.818 321.038 215.352 321.038C214.067 321.038 213.129 321.833 212.538 323.425C211.972 324.99 211.69 327.403 211.69 330.661ZM228.767 330.585C228.767 336.462 227.623 340.889 225.335 343.866C223.049 346.817 219.695 348.292 215.275 348.292C211.034 348.292 207.758 346.778 205.445 343.751C203.131 340.696 201.975 336.308 201.975 330.585C201.975 318.856 206.408 312.992 215.275 312.992C219.617 312.992 222.945 314.52 225.259 317.573C227.598 320.602 228.767 324.938 228.767 330.585Z" fill="white"/>
<mask id="mask1_536_2" style="mask-type:luminance" maskUnits="userSpaceOnUse" x="60" y="71" width="180" height="178">
<path d="M239.688 71.2073H60.6626V248.184H239.688V71.2073Z" fill="white"/>
</mask>
<g mask="url(#mask1_536_2)">
<path d="M102.292 103.407H80.8101V114.144H102.292V103.407Z" fill="#CCCCCC"/>
<path d="M98.7031 103.407H84.3838V114.142H98.7031V103.407Z" fill="#B3B3B3"/>
<path d="M219.541 103.407H198.06V114.144H219.541V103.407Z" fill="#CCCCCC"/>
<path d="M215.964 103.407H201.646V114.142H215.964V103.407Z" fill="#B3B3B3"/>
<path d="M150.172 81.9453C164.016 81.9453 175.234 84.2137 175.234 98.0541L180.606 104.767L185.979 98.0541C185.975 78.2855 169.945 71.2073 150.172 71.2073C130.4 71.2073 114.366 78.2855 114.366 98.0577L119.738 104.77L125.11 98.0577C125.11 84.2172 136.333 81.9489 150.172 81.9489V81.9453Z" fill="#B3B3B3"/>
<path d="M108.994 113.289H130.476V103.447C130.476 100.483 128.073 98.0764 125.104 98.0764H114.365C111.401 98.0764 108.994 100.479 108.994 103.447V113.289Z" fill="white"/>
<path d="M191.343 113.289H169.861V103.447C169.861 100.483 172.264 98.0764 175.232 98.0764H185.972C188.936 98.0764 191.343 100.479 191.343 103.447V113.289Z" fill="white"/>
<path d="M83.0405 243.029H74.0903C66.6731 243.029 60.6626 237.018 60.6626 229.603L71.194 122.209C71.194 114.793 77.204 108.783 84.6212 108.783H217.31L212.414 211.954L83.0405 243.029Z" fill="#FFC422"/>
<path d="M226.257 243.029C233.673 243.029 239.684 237.018 239.684 229.603L229.154 122.209C229.154 114.793 223.143 108.783 215.726 108.783H206.775L182.082 176.801L83.0376 243.029H226.257Z" fill="#FFC422"/>
<path d="M226.257 243.029C233.673 243.029 239.684 237.018 239.684 229.603L229.154 122.209C229.154 114.793 223.143 108.783 215.726 108.783H206.775L189.361 177.866L83.0376 243.029H226.257Z" fill="black" fill-opacity="0.1"/>
<path d="M161.013 186.047L164.914 162.179V129.02H137.082V162.179H103.835V189.938H137.082L161.013 186.047Z" fill="white"/>
<path d="M164.845 223.016V189.574H198.089V161.573H164.845L137.01 189.574V223.016H164.845Z" fill="white"/>
</g>
<path d="M56.1519 22H55.5226L55.1642 22.5166L15.2139 80.1091L15 80.4174V80.7924L15.0001 344.758V345.153L15.2353 345.471L55.1855 399.464L55.5457 399.951H56.1519H245.089H245.698L246.058 399.46L285.708 345.467L285.941 345.151V344.758V76.8928V76.4983L285.707 76.1808L246.056 22.4877L245.696 22H245.089H56.1519Z" stroke="#B5B5B5" stroke-width="2.41103"/>
</g>
</g>
<defs>
<filter id="filter0_d_536_2" x="-2.20557" y="4.79443" width="305.353" height="412.362" filterUnits="userSpaceOnUse" color-interpolation-filters="sRGB">
<feFlood flood-opacity="0" result="BackgroundImageFix"/>
<feColorMatrix in="SourceAlpha" type="matrix" values="0 0 0 0 0 0 0 0 0 0 0 0 0 0 0 0 0 0 127 0" result="hardAlpha"/>
<feOffset/>
<feGaussianBlur stdDeviation="8"/>
<feComposite in2="hardAlpha" operator="out"/>
<feColorMatrix type="matrix" values="0 0 0 0 1 0 0 0 0 0.768627 0 0 0 0 0.133333 0 0 0 1 0"/>
<feBlend mode="normal" in2="BackgroundImageFix" result="effect1_dropShadow_536_2"/>
<feBlend mode="normal" in="SourceGraphic" in2="effect1_dropShadow_536_2" result="shape"/>
</filter>
<linearGradient id="paint0_linear_536_2" x1="288.944" y1="426.64" x2="16.4383" y2="1.55079" gradientUnits="userSpaceOnUse">
<stop stop-opacity="0.2"/>
<stop offset="0.364583" stop-color="white" stop-opacity="0.1"/>
<stop offset="0.651042" stop-opacity="0.2"/>
<stop offset="1" stop-color="white" stop-opacity="0.2"/>
</linearGradient>
<linearGradient id="paint1_linear_536_2" x1="288.945" y1="426.648" x2="16.4381" y2="1.55838" gradientUnits="userSpaceOnUse">
<stop stop-opacity="0.2"/>
<stop offset="0.364583" stop-color="white" stop-opacity="0.1"/>
<stop offset="0.651042" stop-opacity="0.2"/>
<stop offset="1" stop-color="white" stop-opacity="0.2"/>
</linearGradient>
<clipPath id="clip0_536_2">
<rect width="300" height="423" fill="white"/>
</clipPath>
</defs>
</svg>
