<svg width="307" height="423" viewBox="0 0 307 423" fill="none" xmlns="http://www.w3.org/2000/svg">
<g filter="url(#filter0_d_536_64)">
<path d="M58.5445 22.0171H57.913L57.5535 22.5361L17.47 80.401L17.2554 80.7107V81.0875L17.2555 346.301V346.698L17.4915 347.018L57.5749 401.266L57.9363 401.755H58.5445H248.112H248.723L249.084 401.262L288.866 347.014L289.1 346.696V346.301V77.1694V76.7731L288.864 76.4541L249.082 22.5071L248.721 22.0171H248.112H58.5445Z" fill="#137DE2"/>
<path d="M58.5445 22.0171H57.913L57.5535 22.5361L17.47 80.401L17.2554 80.7107V81.0875L17.2555 346.301V346.698L17.4915 347.018L57.5749 401.266L57.9363 401.755H58.5445H248.112H248.723L249.084 401.262L288.866 347.014L289.1 346.696V346.301V77.1694V76.7731L288.864 76.4541L249.082 22.5071L248.721 22.0171H248.112H58.5445Z" stroke="#B5B5B5" stroke-width="2.41103"/>
</g>
<path d="M58.5445 43.7085H57.913L57.5535 44.2276L17.47 102.092L17.2554 102.402V102.779V346.293V346.69L17.4914 347.01L57.5748 401.258L57.9362 401.747H58.5444H248.112H248.723L249.084 401.255L288.866 347.006L289.1 346.688V346.293V98.861V98.4645L288.864 98.1455L249.082 44.1986L248.721 43.7085H248.112H58.5445Z" fill="#121212"/>
<path d="M58.5445 43.7085H57.913L57.5535 44.2276L17.47 102.092L17.2554 102.402V102.779V346.293V346.69L17.4914 347.01L57.5748 401.258L57.9362 401.747H58.5444H248.112H248.723L249.084 401.255L288.866 347.006L289.1 346.688V346.293V98.861V98.4645L288.864 98.1455L249.082 44.1986L248.721 43.7085H248.112H58.5445Z" fill="url(#paint0_linear_536_64)"/>
<path d="M58.5445 43.7085H57.913L57.5535 44.2276L17.47 102.092L17.2554 102.402V102.779V346.293V346.69L17.4914 347.01L57.5748 401.258L57.9362 401.747H58.5444H248.112H248.723L249.084 401.255L288.866 347.006L289.1 346.688V346.293V98.861V98.4645L288.864 98.1455L249.082 44.1986L248.721 43.7085H248.112H58.5445Z" stroke="#B5B5B5" stroke-width="2.41103"/>
<mask id="mask0_536_64" style="mask-type:alpha" maskUnits="userSpaceOnUse" x="16" y="20" width="275" height="383">
<path d="M58.5445 22.0171H57.913L57.5535 22.5361L17.47 80.401L17.2554 80.7107V81.0875L17.2555 346.301V346.698L17.4915 347.018L57.5749 401.266L57.9363 401.755H58.5445H248.112H248.723L249.084 401.262L288.866 347.014L289.1 346.696V346.301V77.1694V76.7731L288.864 76.4541L249.082 22.5071L248.721 22.0171H248.112H58.5445Z" fill="#121212"/>
<path d="M58.5445 22.0171H57.913L57.5535 22.5361L17.47 80.401L17.2554 80.7107V81.0875L17.2555 346.301V346.698L17.4915 347.018L57.5749 401.266L57.9363 401.755H58.5445H248.112H248.723L249.084 401.262L288.866 347.014L289.1 346.696V346.301V77.1694V76.7731L288.864 76.4541L249.082 22.5071L248.721 22.0171H248.112H58.5445Z" fill="url(#paint1_linear_536_64)"/>
<path d="M58.5445 22.0171H57.913L57.5535 22.5361L17.47 80.401L17.2554 80.7107V81.0875L17.2555 346.301V346.698L17.4915 347.018L57.5749 401.266L57.9363 401.755H58.5445H248.112H248.723L249.084 401.262L288.866 347.014L289.1 346.696V346.301V77.1694V76.7731L288.864 76.4541L249.082 22.5071L248.721 22.0171H248.112H58.5445Z" stroke="#B5B5B5" stroke-width="2.41103"/>
</mask>
<g mask="url(#mask0_536_64)">
<path d="M401.241 368.447H-95.0298V406.931H401.241V368.447Z" fill="#137DE2" stroke="#B5B5B5" stroke-width="2.41103"/>
<path d="M289.1 275.176H17.8594V367.398H289.1V275.176Z" fill="#454545"/>
<path d="M103.717 349.156L124.951 302.744H97.0649V292.688H137.637V300.191L116.248 349.156H103.717ZM152.373 309.551C152.373 312.826 152.657 315.275 153.224 316.9C153.817 318.498 154.758 319.297 156.047 319.297C158.523 319.297 159.76 316.049 159.76 309.551C159.76 303.105 158.523 299.882 156.047 299.882C154.758 299.882 153.817 300.681 153.224 302.28C152.657 303.852 152.373 306.276 152.373 309.551ZM169.507 309.473C169.507 315.404 168.359 319.865 166.065 322.856C163.77 325.821 160.405 327.304 155.97 327.304C151.715 327.304 148.428 325.782 146.107 322.74C143.787 319.671 142.626 315.249 142.626 309.473C142.626 297.69 147.074 291.798 155.97 291.798C160.328 291.798 163.667 293.332 165.987 296.401C168.334 299.443 169.507 303.801 169.507 309.473ZM196.117 292.61L164.75 349.156H155.467L186.834 292.61H196.117ZM191.978 332.138C191.978 335.413 192.262 337.863 192.829 339.487C193.422 341.086 194.363 341.885 195.653 341.885C198.128 341.885 199.366 338.636 199.366 332.138C199.366 325.692 198.128 322.469 195.653 322.469C194.363 322.469 193.422 323.268 192.829 324.867C192.262 326.44 191.978 328.864 191.978 332.138ZM209.112 332.061C209.112 337.966 207.965 342.414 205.67 345.405C203.375 348.37 200.01 349.852 195.575 349.852C191.321 349.852 188.033 348.331 185.713 345.289C183.392 342.22 182.232 337.811 182.232 332.061C182.232 320.277 186.68 314.385 195.575 314.385C199.933 314.385 203.272 315.92 205.593 318.988C207.939 322.031 209.112 326.388 209.112 332.061Z" fill="white"/>
<mask id="mask1_536_64" style="mask-type:luminance" maskUnits="userSpaceOnUse" x="63" y="71" width="180" height="179">
<path d="M242.696 71.457H63.0742V249.271H242.696V71.457Z" fill="white"/>
</mask>
<g mask="url(#mask1_536_64)">
<path d="M104.846 103.809H83.293V114.596H104.846V103.809Z" fill="#CCCCCC"/>
<path d="M101.245 103.809H86.8789V114.595H101.245V103.809Z" fill="#B3B3B3"/>
<path d="M222.487 103.809H200.934V114.596H222.487V103.809Z" fill="#CCCCCC"/>
<path d="M218.898 103.809H204.531V114.595H218.898V103.809Z" fill="#B3B3B3"/>
<path d="M152.878 82.2458C166.767 82.2458 178.024 84.5249 178.024 98.4308L183.414 105.175L188.803 98.4308C188.8 78.5687 172.716 71.457 152.878 71.457C133.04 71.457 116.953 78.5687 116.953 98.4344L122.343 105.179L127.732 98.4344C127.732 84.5284 138.993 82.2494 152.878 82.2494V82.2458Z" fill="#B3B3B3"/>
<path d="M111.562 113.738H133.116V103.849C133.116 100.871 130.704 98.4531 127.727 98.4531H116.952C113.977 98.4531 111.562 100.868 111.562 103.849V113.738Z" fill="white"/>
<path d="M194.186 113.738H172.633V103.849C172.633 100.871 175.044 98.4531 178.022 98.4531H188.797C191.771 98.4531 194.186 100.868 194.186 103.849V113.738Z" fill="white"/>
<path d="M85.527 244.091H76.547C69.105 244.091 63.0742 238.052 63.0742 230.602L73.64 122.7C73.64 115.249 79.671 109.211 87.113 109.211H220.244L215.331 212.869L85.527 244.091Z" fill="#137DE2"/>
<path d="M229.224 244.091C236.666 244.091 242.697 238.052 242.697 230.602L232.131 122.7C232.131 115.249 226.1 109.211 218.658 109.211H209.678L184.903 177.55L85.5269 244.091H229.224Z" fill="#137DE2"/>
<path d="M229.224 244.091C236.666 244.091 242.697 238.052 242.697 230.602L232.131 122.7C232.131 115.249 226.1 109.211 218.658 109.211H209.678L192.205 178.62L85.5269 244.091H229.224Z" fill="black" fill-opacity="0.1"/>
<path d="M163.76 186.84L167.673 162.859V129.543H139.749V162.859H106.391V190.749H139.749L163.76 186.84Z" fill="white"/>
<path d="M167.603 223.984V190.383H200.959V162.25H167.603L139.676 190.383V223.984H167.603Z" fill="white"/>
</g>
<path d="M58.5445 22.0171H57.913L57.5535 22.5361L17.47 80.401L17.2554 80.7107V81.0875L17.2555 346.301V346.698L17.4915 347.018L57.5749 401.266L57.9363 401.755H58.5445H248.112H248.723L249.084 401.262L288.866 347.014L289.1 346.696V346.301V77.1694V76.7731L288.864 76.4541L249.082 22.5071L248.721 22.0171H248.112H58.5445Z" stroke="#B5B5B5" stroke-width="2.41103"/>
</g>
<defs>
<filter id="filter0_d_536_64" x="0.0498047" y="4.81152" width="306.256" height="414.149" filterUnits="userSpaceOnUse" color-interpolation-filters="sRGB">
<feFlood flood-opacity="0" result="BackgroundImageFix"/>
<feColorMatrix in="SourceAlpha" type="matrix" values="0 0 0 0 0 0 0 0 0 0 0 0 0 0 0 0 0 0 127 0" result="hardAlpha"/>
<feOffset/>
<feGaussianBlur stdDeviation="8"/>
<feComposite in2="hardAlpha" operator="out"/>
<feColorMatrix type="matrix" values="0 0 0 0 0.0745098 0 0 0 0 0.490196 0 0 0 0 0.886275 0 0 0 1 0"/>
<feBlend mode="normal" in2="BackgroundImageFix" result="effect1_dropShadow_536_64"/>
<feBlend mode="normal" in="SourceGraphic" in2="effect1_dropShadow_536_64" result="shape"/>
</filter>
<linearGradient id="paint0_linear_536_64" x1="292.113" y1="428.57" x2="18.1598" y2="1.81701" gradientUnits="userSpaceOnUse">
<stop stop-opacity="0.2"/>
<stop offset="0.364583" stop-color="white" stop-opacity="0.1"/>
<stop offset="0.651042" stop-opacity="0.2"/>
<stop offset="1" stop-color="white" stop-opacity="0.2"/>
</linearGradient>
<linearGradient id="paint1_linear_536_64" x1="292.113" y1="428.578" x2="18.1596" y2="1.82465" gradientUnits="userSpaceOnUse">
<stop stop-opacity="0.2"/>
<stop offset="0.364583" stop-color="white" stop-opacity="0.1"/>
<stop offset="0.651042" stop-opacity="0.2"/>
<stop offset="1" stop-color="white" stop-opacity="0.2"/>
</linearGradient>
</defs>
</svg>
