<svg width="300" height="423" viewBox="0 0 300 423" fill="none" xmlns="http://www.w3.org/2000/svg">
<g clip-path="url(#clip0_536_126)">
<g filter="url(#filter0_d_536_126)">
<path d="M55.4272 18H54.7936L54.4329 18.5265L14.2153 77.2239L14 77.5381V77.9203L14.0001 346.95V347.353L14.2369 347.677L54.4544 402.706L54.817 403.202H55.4272H245.628H246.241L246.604 402.702L286.52 347.673L286.753 347.351V346.95V73.9459V73.5438L286.518 73.2202L246.603 18.4971L246.239 18H245.628H55.4272Z" fill="#B2E113"/>
<path d="M55.4272 18H54.7936L54.4329 18.5265L14.2153 77.2239L14 77.5381V77.9203L14.0001 346.95V347.353L14.2369 347.677L54.4544 402.706L54.817 403.202H55.4272H245.628H246.241L246.604 402.702L286.52 347.673L286.753 347.351V346.95V73.9459V73.5438L286.518 73.2202L246.603 18.4971L246.239 18H245.628H55.4272Z" stroke="#B5B5B5" stroke-width="2.41103"/>
</g>
<path d="M55.4272 40.0034H54.7936L54.4329 40.53L14.2153 99.2274L14 99.5415V99.9238V346.942V347.344L14.2368 347.669L54.4543 402.698L54.8169 403.194H55.4271H245.628H246.241L246.604 402.695L286.519 347.665L286.753 347.342V346.942V95.9495V95.5473L286.518 95.2237L246.603 40.5006L246.239 40.0034H245.628H55.4272Z" fill="#121212"/>
<path d="M55.4272 40.0034H54.7936L54.4329 40.53L14.2153 99.2274L14 99.5415V99.9238V346.942V347.344L14.2368 347.669L54.4543 402.698L54.8169 403.194H55.4271H245.628H246.241L246.604 402.695L286.519 347.665L286.753 347.342V346.942V95.9495V95.5473L286.518 95.2237L246.603 40.5006L246.239 40.0034H245.628H55.4272Z" fill="url(#paint0_linear_536_126)"/>
<path d="M55.4272 40.0034H54.7936L54.4329 40.53L14.2153 99.2274L14 99.5415V99.9238V346.942V347.344L14.2368 347.669L54.4543 402.698L54.8169 403.194H55.4271H245.628H246.241L246.604 402.695L286.519 347.665L286.753 347.342V346.942V95.9495V95.5473L286.518 95.2237L246.603 40.5006L246.239 40.0034H245.628H55.4272Z" stroke="#B5B5B5" stroke-width="2.41103"/>
<mask id="mask0_536_126" style="mask-type:alpha" maskUnits="userSpaceOnUse" x="12" y="16" width="276" height="389">
<path d="M55.4272 18H54.7936L54.4329 18.5265L14.2153 77.2239L14 77.5381V77.9203L14.0001 346.95V347.353L14.2369 347.677L54.4544 402.706L54.817 403.202H55.4272H245.628H246.241L246.604 402.702L286.52 347.673L286.753 347.351V346.95V73.9459V73.5438L286.518 73.2202L246.603 18.4971L246.239 18H245.628H55.4272Z" fill="#121212"/>
<path d="M55.4272 18H54.7936L54.4329 18.5265L14.2153 77.2239L14 77.5381V77.9203L14.0001 346.95V347.353L14.2369 347.677L54.4544 402.706L54.817 403.202H55.4272H245.628H246.241L246.604 402.702L286.52 347.673L286.753 347.351V346.95V73.9459V73.5438L286.518 73.2202L246.603 18.4971L246.239 18H245.628H55.4272Z" fill="url(#paint1_linear_536_126)"/>
<path d="M55.4272 18H54.7936L54.4329 18.5265L14.2153 77.2239L14 77.5381V77.9203L14.0001 346.95V347.353L14.2369 347.677L54.4544 402.706L54.817 403.202H55.4272H245.628H246.241L246.604 402.702L286.52 347.673L286.753 347.351V346.95V73.9459V73.5438L286.518 73.2202L246.603 18.4971L246.239 18H245.628H55.4272Z" stroke="#B5B5B5" stroke-width="2.41103"/>
</mask>
<g mask="url(#mask0_536_126)">
<path d="M399.27 369.415H-98.6606V408.452H399.27V369.415Z" fill="#B2E113" stroke="#B5B5B5" stroke-width="2.41103"/>
<path d="M286.754 274.802H14.606V368.351H286.754V274.802Z" fill="#454545"/>
<path d="M102.07 349.846H90.0789V316.654L90.1953 311.201L90.3899 305.237C88.3973 307.252 87.0137 308.572 86.2371 309.2L79.7173 314.496L73.9351 307.199L92.213 292.486H102.07V349.846ZM157.486 349.846H117.825V341.411L132.068 326.855C136.285 322.487 139.04 319.466 140.333 317.792C141.627 316.092 142.559 314.523 143.128 313.084C143.697 311.646 143.982 310.155 143.982 308.612C143.982 306.31 143.347 304.597 142.08 303.472C140.838 302.347 139.17 301.785 137.074 301.785C134.874 301.785 132.74 302.295 130.67 303.315C128.601 304.335 126.441 305.787 124.19 307.67L117.671 299.863C120.464 297.456 122.78 295.756 124.617 294.763C126.454 293.768 128.459 293.01 130.632 292.486C132.805 291.937 135.236 291.663 137.927 291.663C141.472 291.663 144.603 292.317 147.319 293.624C150.035 294.932 152.144 296.763 153.644 299.117C155.145 301.471 155.895 304.165 155.895 307.199C155.895 309.84 155.429 312.326 154.498 314.654C153.593 316.955 152.17 319.322 150.229 321.754C148.315 324.187 144.926 327.653 140.061 332.152L132.766 339.096V339.645H157.486V349.846ZM172.271 309.671C172.271 312.993 172.556 315.477 173.125 317.126C173.72 318.747 174.664 319.557 175.958 319.557C178.441 319.557 179.684 316.263 179.684 309.671C179.684 303.132 178.441 299.863 175.958 299.863C174.664 299.863 173.72 300.673 173.125 302.295C172.556 303.89 172.271 306.349 172.271 309.671ZM189.462 309.592C189.462 315.608 188.311 320.133 186.009 323.167C183.706 326.175 180.33 327.679 175.88 327.679C171.612 327.679 168.313 326.136 165.985 323.05C163.656 319.937 162.492 315.451 162.492 309.592C162.492 297.639 166.955 291.663 175.88 291.663C180.252 291.663 183.603 293.219 185.931 296.332C188.285 299.418 189.462 303.838 189.462 309.592ZM216.161 292.486L184.689 349.846H175.376L206.848 292.486H216.161ZM212.009 332.583C212.009 335.905 212.293 338.39 212.863 340.038C213.458 341.66 214.402 342.47 215.696 342.47C218.179 342.47 219.421 339.175 219.421 332.583C219.421 326.044 218.179 322.775 215.696 322.775C214.402 322.775 213.458 323.585 212.863 325.207C212.293 326.803 212.009 329.262 212.009 332.583ZM229.201 332.505C229.201 338.495 228.049 343.007 225.746 346.041C223.444 349.049 220.068 350.552 215.618 350.552C211.349 350.552 208.051 349.009 205.722 345.923C203.394 342.81 202.23 338.338 202.23 332.505C202.23 320.551 206.693 314.575 215.618 314.575C219.99 314.575 223.34 316.132 225.669 319.244C228.024 322.331 229.201 326.75 229.201 332.505Z" fill="white"/>
<mask id="mask1_536_126" style="mask-type:luminance" maskUnits="userSpaceOnUse" x="59" y="68" width="182" height="181">
<path d="M240.195 68.1514H59.9722V248.524H240.195V68.1514Z" fill="white"/>
</mask>
<g mask="url(#mask1_536_126)">
<path d="M101.884 100.969H80.2578V111.912H101.884V100.969Z" fill="#CCCCCC"/>
<path d="M98.2715 100.969H83.8564V111.91H98.2715V100.969Z" fill="#B3B3B3"/>
<path d="M219.918 100.969H198.292V111.912H219.918V100.969Z" fill="#CCCCCC"/>
<path d="M216.317 100.969H201.903V111.91H216.317V100.969Z" fill="#B3B3B3"/>
<path d="M150.077 79.0954C164.012 79.0954 175.306 81.4073 175.306 95.5133L180.714 102.355L186.122 95.5133C186.118 75.3654 169.981 68.1514 150.077 68.1514C130.172 68.1514 114.031 75.3654 114.031 95.5169L119.439 102.358L124.847 95.5169C124.847 81.4108 136.144 79.0991 150.077 79.0991V79.0954Z" fill="#B3B3B3"/>
<path d="M108.623 111.041H130.248V101.009C130.248 97.9886 127.829 95.5359 124.841 95.5359H114.03C111.046 95.5359 108.623 97.985 108.623 101.009V111.041Z" fill="white"/>
<path d="M191.522 111.041H169.897V101.009C169.897 97.9886 172.317 95.5359 175.304 95.5359H186.115C189.099 95.5359 191.522 97.985 191.522 101.009V111.041Z" fill="white"/>
<path d="M82.4998 243.269H73.4897C66.0228 243.269 59.9722 237.143 59.9722 229.586L70.574 120.132C70.574 112.574 76.6242 106.448 84.0911 106.448H217.667L212.739 211.598L82.4998 243.269Z" fill="#B2E113"/>
<path d="M226.679 243.269C234.144 243.269 240.196 237.143 240.196 229.586L229.594 120.132C229.594 112.574 223.543 106.448 216.077 106.448H207.066L182.208 175.771L82.501 243.269H226.679Z" fill="#B2E113"/>
<path d="M226.679 243.269C234.144 243.269 240.196 237.143 240.196 229.586L229.594 120.132C229.594 112.574 223.543 106.448 216.077 106.448H207.066L189.536 176.856L82.501 243.269H226.679Z" fill="black" fill-opacity="0.1"/>
<path d="M160.998 185.194L164.925 160.868V127.073H136.907V160.868H103.438V189.16H136.907L160.998 185.194Z" fill="white"/>
<path d="M164.854 222.873V188.789H198.322V160.251H164.854L136.834 188.789V222.873H164.854Z" fill="white"/>
</g>
<path d="M55.4272 18H54.7936L54.4329 18.5265L14.2153 77.2239L14 77.5381V77.9203L14.0001 346.95V347.353L14.2369 347.677L54.4544 402.706L54.817 403.202H55.4272H245.628H246.241L246.604 402.702L286.52 347.673L286.753 347.351V346.95V73.9459V73.5438L286.518 73.2202L246.603 18.4971L246.239 18H245.628H55.4272Z" stroke="#B5B5B5" stroke-width="2.41103"/>
</g>
</g>
<defs>
<filter id="filter0_d_536_126" x="-3.20557" y="0.794434" width="307.165" height="419.613" filterUnits="userSpaceOnUse" color-interpolation-filters="sRGB">
<feFlood flood-opacity="0" result="BackgroundImageFix"/>
<feColorMatrix in="SourceAlpha" type="matrix" values="0 0 0 0 0 0 0 0 0 0 0 0 0 0 0 0 0 0 127 0" result="hardAlpha"/>
<feOffset/>
<feGaussianBlur stdDeviation="8"/>
<feComposite in2="hardAlpha" operator="out"/>
<feColorMatrix type="matrix" values="0 0 0 0 0.698039 0 0 0 0 0.882353 0 0 0 0 0.0745098 0 0 0 1 0"/>
<feBlend mode="normal" in2="BackgroundImageFix" result="effect1_dropShadow_536_126"/>
<feBlend mode="normal" in="SourceGraphic" in2="effect1_dropShadow_536_126" result="shape"/>
</filter>
<linearGradient id="paint0_linear_536_126" x1="289.778" y1="430.403" x2="10.6263" y2="0.287672" gradientUnits="userSpaceOnUse">
<stop stop-opacity="0.2"/>
<stop offset="0.364583" stop-color="white" stop-opacity="0.1"/>
<stop offset="0.651042" stop-opacity="0.2"/>
<stop offset="1" stop-color="white" stop-opacity="0.2"/>
</linearGradient>
<linearGradient id="paint1_linear_536_126" x1="289.778" y1="430.411" x2="10.6261" y2="0.295529" gradientUnits="userSpaceOnUse">
<stop stop-opacity="0.2"/>
<stop offset="0.364583" stop-color="white" stop-opacity="0.1"/>
<stop offset="0.651042" stop-opacity="0.2"/>
<stop offset="1" stop-color="white" stop-opacity="0.2"/>
</linearGradient>
<clipPath id="clip0_536_126">
<rect width="300" height="423" fill="white"/>
</clipPath>
</defs>
</svg>
