<svg width="308" height="423" viewBox="0 0 308 423" fill="none" xmlns="http://www.w3.org/2000/svg">
<g filter="url(#filter0_d_536_33)">
<path d="M59.2906 22.0171H58.6591L58.2996 22.5361L18.2161 80.401L18.0015 80.7107V81.0875L18.0016 346.301V346.698L18.2375 347.018L58.321 401.266L58.6824 401.755H59.2906H248.858H249.469L249.83 401.262L289.612 347.014L289.846 346.696V346.301V77.1694V76.7731L289.61 76.4541L249.828 22.5071L249.467 22.0171H248.858H59.2906Z" fill="#7A7A7A"/>
<path d="M59.2906 22.0171H58.6591L58.2996 22.5361L18.2161 80.401L18.0015 80.7107V81.0875L18.0016 346.301V346.698L18.2375 347.018L58.321 401.266L58.6824 401.755H59.2906H248.858H249.469L249.83 401.262L289.612 347.014L289.846 346.696V346.301V77.1694V76.7731L289.61 76.4541L249.828 22.5071L249.467 22.0171H248.858H59.2906Z" stroke="#7A7A7A" stroke-width="2.41103"/>
</g>
<path d="M59.2906 43.7085H58.6591L58.2996 44.2276L18.2161 102.092L18.0015 102.402V102.779V346.293V346.69L18.2375 347.01L58.3209 401.258L58.6823 401.747H59.2905H248.858H249.469L249.83 401.255L289.612 347.006L289.846 346.688V346.293V98.861V98.4645L289.61 98.1455L249.828 44.1986L249.467 43.7085H248.858H59.2906Z" fill="#121212"/>
<path d="M59.2906 43.7085H58.6591L58.2996 44.2276L18.2161 102.092L18.0015 102.402V102.779V346.293V346.69L18.2375 347.01L58.3209 401.258L58.6823 401.747H59.2905H248.858H249.469L249.83 401.255L289.612 347.006L289.846 346.688V346.293V98.861V98.4645L289.61 98.1455L249.828 44.1986L249.467 43.7085H248.858H59.2906Z" fill="url(#paint0_linear_536_33)"/>
<path d="M59.2906 43.7085H58.6591L58.2996 44.2276L18.2161 102.092L18.0015 102.402V102.779V346.293V346.69L18.2375 347.01L58.3209 401.258L58.6823 401.747H59.2905H248.858H249.469L249.83 401.255L289.612 347.006L289.846 346.688V346.293V98.861V98.4645L289.61 98.1455L249.828 44.1986L249.467 43.7085H248.858H59.2906Z" stroke="#B5B5B5" stroke-width="2.41103"/>
<mask id="mask0_536_33" style="mask-type:alpha" maskUnits="userSpaceOnUse" x="16" y="20" width="276" height="383">
<path d="M59.2906 22.0171H58.6591L58.2996 22.5361L18.2161 80.401L18.0015 80.7107V81.0875L18.0016 346.301V346.698L18.2375 347.018L58.321 401.266L58.6824 401.755H59.2906H248.858H249.469L249.83 401.262L289.612 347.014L289.846 346.696V346.301V77.1694V76.7731L289.61 76.4541L249.828 22.5071L249.467 22.0171H248.858H59.2906Z" fill="#121212"/>
<path d="M59.2906 22.0171H58.6591L58.2996 22.5361L18.2161 80.401L18.0015 80.7107V81.0875L18.0016 346.301V346.698L18.2375 347.018L58.321 401.266L58.6824 401.755H59.2906H248.858H249.469L249.83 401.262L289.612 347.014L289.846 346.696V346.301V77.1694V76.7731L289.61 76.4541L249.828 22.5071L249.467 22.0171H248.858H59.2906Z" fill="url(#paint1_linear_536_33)"/>
<path d="M59.2906 22.0171H58.6591L58.2996 22.5361L18.2161 80.401L18.0015 80.7107V81.0875L18.0016 346.301V346.698L18.2375 347.018L58.321 401.266L58.6824 401.755H59.2906H248.858H249.469L249.83 401.262L289.612 347.014L289.846 346.696V346.301V77.1694V76.7731L289.61 76.4541L249.828 22.5071L249.467 22.0171H248.858H59.2906Z" stroke="#7A7A7A" stroke-width="2.41103"/>
</mask>
<g mask="url(#mask0_536_33)">
<path d="M401.983 368.447H-94.2876V406.931H401.983V368.447Z" fill="#7A7A7A" stroke="#7A7A7A" stroke-width="2.41103"/>
<path d="M289.843 275.176H18.6016V367.398H289.843V275.176Z" fill="#454545"/>
<path d="M119.427 313.032C124.894 313.032 129.238 314.566 132.461 317.634C135.71 320.703 137.335 324.906 137.335 330.243C137.335 336.56 135.388 341.421 131.495 344.824C127.601 348.228 122.032 349.93 114.786 349.93C108.495 349.93 103.415 348.911 99.5469 346.874V336.548C101.584 337.63 103.956 338.52 106.664 339.216C109.371 339.887 111.937 340.222 114.361 340.222C121.658 340.222 125.306 337.231 125.306 331.249C125.306 325.55 121.529 322.701 113.974 322.701C112.607 322.701 111.099 322.843 109.449 323.127C107.798 323.384 106.458 323.668 105.426 323.977L100.669 321.425L102.796 292.61H133.467V302.744H113.278L112.233 313.844L113.587 313.573C115.16 313.212 117.107 313.032 119.427 313.032ZM153.115 309.551C153.115 312.826 153.399 315.275 153.966 316.9C154.559 318.498 155.5 319.297 156.789 319.297C159.265 319.297 160.502 316.049 160.502 309.551C160.502 303.105 159.265 299.882 156.789 299.882C155.5 299.882 154.559 300.681 153.966 302.28C153.399 303.852 153.115 306.276 153.115 309.551ZM170.249 309.473C170.249 315.404 169.102 319.865 166.807 322.856C164.512 325.821 161.147 327.304 156.712 327.304C152.458 327.304 149.17 325.782 146.849 322.74C144.529 319.671 143.368 315.249 143.368 309.473C143.368 297.69 147.816 291.798 156.712 291.798C161.07 291.798 164.409 293.332 166.729 296.401C169.076 299.443 170.249 303.801 170.249 309.473ZM196.859 292.61L165.492 349.156H156.209L187.576 292.61H196.859ZM192.72 332.138C192.72 335.413 193.004 337.863 193.571 339.487C194.164 341.086 195.106 341.885 196.395 341.885C198.87 341.885 200.108 338.636 200.108 332.138C200.108 325.692 198.87 322.469 196.395 322.469C195.106 322.469 194.164 323.268 193.571 324.867C193.004 326.44 192.72 328.864 192.72 332.138ZM209.854 332.061C209.854 337.966 208.707 342.414 206.412 345.405C204.117 348.37 200.752 349.852 196.317 349.852C192.063 349.852 188.775 348.331 186.455 345.289C184.134 342.22 182.974 337.811 182.974 332.061C182.974 320.277 187.422 314.385 196.317 314.385C200.675 314.385 204.014 315.92 206.335 318.988C208.681 322.031 209.854 326.388 209.854 332.061Z" fill="white"/>
<mask id="mask1_536_33" style="mask-type:luminance" maskUnits="userSpaceOnUse" x="63" y="71" width="181" height="179">
<path d="M243.438 71.457H63.8164V249.271H243.438V71.457Z" fill="white"/>
</mask>
<g mask="url(#mask1_536_33)">
<path d="M105.588 103.809H84.0352V114.596H105.588V103.809Z" fill="#CCCCCC"/>
<path d="M101.988 103.809H87.6211V114.595H101.988V103.809Z" fill="#B3B3B3"/>
<path d="M223.233 103.809H201.68V114.596H223.233V103.809Z" fill="#CCCCCC"/>
<path d="M219.644 103.809H205.277V114.595H219.644V103.809Z" fill="#B3B3B3"/>
<path d="M153.624 82.2458C167.513 82.2458 178.77 84.5249 178.77 98.4308L184.16 105.175L189.549 98.4308C189.546 78.5687 173.462 71.457 153.624 71.457C133.786 71.457 117.699 78.5687 117.699 98.4344L123.089 105.179L128.479 98.4344C128.479 84.5284 139.739 82.2494 153.624 82.2494V82.2458Z" fill="#B3B3B3"/>
<path d="M112.309 113.738H133.862V103.849C133.862 100.871 131.45 98.4531 128.473 98.4531H117.698C114.724 98.4531 112.309 100.868 112.309 103.849V113.738Z" fill="white"/>
<path d="M194.932 113.738H173.379V103.849C173.379 100.871 175.79 98.4531 178.768 98.4531H189.543C192.517 98.4531 194.932 100.868 194.932 103.849V113.738Z" fill="white"/>
<path d="M86.269 244.091H77.289C69.847 244.091 63.8164 238.052 63.8164 230.602L74.382 122.7C74.382 115.249 80.413 109.211 87.855 109.211H220.986L216.073 212.869L86.269 244.091Z" fill="#7A7A7A"/>
<path d="M229.966 244.091C237.408 244.091 243.439 238.052 243.439 230.602L232.873 122.7C232.873 115.249 226.842 109.211 219.4 109.211H210.42L185.645 177.55L86.27 244.091H229.966Z" fill="#7A7A7A"/>
<path d="M229.966 244.091C237.408 244.091 243.439 238.052 243.439 230.602L232.873 122.7C232.873 115.249 226.842 109.211 219.4 109.211H210.42L192.948 178.62L86.27 244.091H229.966Z" fill="black" fill-opacity="0.1"/>
<path d="M164.51 186.84L168.423 162.859V129.543H140.499V162.859H107.141V190.749H140.499L164.51 186.84Z" fill="white"/>
<path d="M168.353 223.984V190.383H201.709V162.25H168.353L140.426 190.383V223.984H168.353Z" fill="white"/>
</g>
<path d="M59.2906 22.0171H58.6591L58.2996 22.5361L18.2161 80.401L18.0015 80.7107V81.0875L18.0016 346.301V346.698L18.2375 347.018L58.321 401.266L58.6824 401.755H59.2906H248.858H249.469L249.83 401.262L289.612 347.014L289.846 346.696V346.301V77.1694V76.7731L289.61 76.4541L249.828 22.5071L249.467 22.0171H248.858H59.2906Z" stroke="#7A7A7A" stroke-width="2.41103"/>
</g>
<defs>
<filter id="filter0_d_536_33" x="0.795898" y="4.81152" width="306.255" height="414.149" filterUnits="userSpaceOnUse" color-interpolation-filters="sRGB">
<feFlood flood-opacity="0" result="BackgroundImageFix"/>
<feColorMatrix in="SourceAlpha" type="matrix" values="0 0 0 0 0 0 0 0 0 0 0 0 0 0 0 0 0 0 127 0" result="hardAlpha"/>
<feOffset/>
<feGaussianBlur stdDeviation="8"/>
<feComposite in2="hardAlpha" operator="out"/>
<feColorMatrix type="matrix" values="0 0 0 0 0.478431 0 0 0 0 0.478431 0 0 0 0 0.478431 0 0 0 1 0"/>
<feBlend mode="normal" in2="BackgroundImageFix" result="effect1_dropShadow_536_33"/>
<feBlend mode="normal" in="SourceGraphic" in2="effect1_dropShadow_536_33" result="shape"/>
</filter>
<linearGradient id="paint0_linear_536_33" x1="292.859" y1="428.57" x2="18.9058" y2="1.81699" gradientUnits="userSpaceOnUse">
<stop stop-opacity="0.2"/>
<stop offset="0.364583" stop-color="white" stop-opacity="0.1"/>
<stop offset="0.651042" stop-opacity="0.2"/>
<stop offset="1" stop-color="white" stop-opacity="0.2"/>
</linearGradient>
<linearGradient id="paint1_linear_536_33" x1="292.86" y1="428.578" x2="18.9057" y2="1.82464" gradientUnits="userSpaceOnUse">
<stop stop-opacity="0.2"/>
<stop offset="0.364583" stop-color="white" stop-opacity="0.1"/>
<stop offset="0.651042" stop-opacity="0.2"/>
<stop offset="1" stop-color="white" stop-opacity="0.2"/>
</linearGradient>
</defs>
</svg>
